<svg width="960" height="600" viewBox="0 0 960 600" fill="none" xmlns="http://www.w3.org/2000/svg">
<rect width="960" height="600" fill="#142942"/>
<g clip-path="url(#clip0_68_1075)">
<mask id="mask0_68_1075" style="mask-type:luminance" maskUnits="userSpaceOnUse" x="222" y="216" width="516" height="167">
<path d="M738 216.982H222V382.102H738V216.982Z" fill="white"/>
</mask>
<g mask="url(#mask0_68_1075)">
<path d="M238.841 360.942C229.527 360.929 221.987 353.356 222 344.028C222.003 341.648 222.509 339.295 223.484 337.123C228.808 325.298 231.546 312.468 231.516 299.495C231.547 286.555 228.822 273.756 223.523 261.954C219.688 253.46 223.454 243.46 231.935 239.618C240.416 235.777 250.401 239.549 254.236 248.044C254.247 248.068 254.258 248.093 254.269 248.117C261.528 264.268 265.263 281.784 265.225 299.496C265.263 317.25 261.51 334.807 254.218 350.99C251.494 357.049 245.475 360.945 238.841 360.942ZM359.546 350.99C374.204 318.275 374.223 280.848 359.597 248.118C355.824 239.595 345.868 235.749 337.359 239.527C328.849 243.306 325.009 253.277 328.782 261.8C328.805 261.852 328.827 261.903 328.851 261.954C339.522 285.874 339.508 313.215 328.812 337.123C324.989 345.623 328.77 355.618 337.257 359.448C345.744 363.277 355.723 359.49 359.546 350.989L359.546 350.99ZM301.381 372.124C311.9 349.038 317.317 323.949 317.259 298.572C317.31 273.992 312.23 249.673 302.346 227.176C298.6 218.64 288.655 214.762 280.133 218.513C271.611 222.264 267.739 232.224 271.484 240.759C279.485 258.977 283.596 278.669 283.551 298.572C283.601 319.119 279.219 339.434 270.704 358.126C266.845 366.611 270.583 376.622 279.054 380.488C287.525 384.353 297.521 380.609 301.381 372.124Z" fill="url(#paint0_linear_68_1075)"/>
<path d="M454.369 289.581C468.055 292.689 471.521 300.82 471.521 308.495C471.521 320.375 462.58 329.237 444.516 329.237C425.541 329.237 417.056 319.734 417.056 312.608C416.947 309.283 419.549 306.5 422.868 306.391C423.029 306.385 423.19 306.387 423.351 306.394C431.47 306.394 429.372 318.273 444.516 318.273C452.271 318.273 456.559 313.979 456.559 309.592C456.559 306.943 455.282 304.018 450.172 302.74L433.295 298.444C419.702 294.972 417.238 287.48 417.238 280.444C417.238 265.825 430.74 260.342 443.421 260.342C455.099 260.342 468.875 266.921 468.875 275.693C468.875 279.439 465.682 281.632 462.032 281.632C455.099 281.632 456.377 271.855 442.417 271.855C435.484 271.855 431.653 275.053 431.653 279.622C431.653 284.191 437.126 285.652 441.87 286.749L454.369 289.581Z" fill="white"/>
<path d="M486.211 260.342C490.04 260.342 493.144 263.451 493.144 267.287C493.144 271.122 490.04 274.231 486.21 274.231C482.381 274.23 479.277 271.121 479.277 267.286C479.275 263.453 482.377 260.343 486.205 260.342C486.206 260.342 486.209 260.342 486.211 260.342ZM479.551 285.378C479.551 281.815 481.01 278.708 486.211 278.708C491.411 278.708 492.871 281.815 492.871 285.378V322.202C492.871 325.765 491.411 328.872 486.211 328.872C481.011 328.872 479.551 325.765 479.551 322.202V285.378Z" fill="white"/>
<path d="M502.17 285.375C502.17 281.354 504.543 278.704 508.466 278.704C512.388 278.704 514.761 281.354 514.761 285.375V287.111H514.942C518.502 281.737 524.562 278.564 531 278.704C536.603 278.524 541.715 281.888 543.773 287.111C547.514 281.902 552.257 278.704 559.465 278.704C568.679 278.704 576.068 282.907 576.068 294.877V322.198C576.068 325.761 574.608 328.869 569.408 328.869C564.207 328.869 562.748 325.761 562.748 322.198V298.258C562.748 293.507 560.65 289.669 555.45 289.669C550.341 289.669 545.779 293.781 545.779 299.995V322.198C545.779 325.761 544.32 328.869 539.119 328.869C533.919 328.869 532.459 325.761 532.459 322.198V298.258C532.459 293.507 530.361 289.669 525.161 289.669C520.052 289.669 515.49 293.781 515.49 299.995V322.198C515.49 325.761 514.031 328.869 508.831 328.869C503.63 328.869 502.171 325.761 502.171 322.198L502.17 285.375Z" fill="white"/>
<path d="M584.643 285.022C584.643 280.91 586.558 278.717 590.664 278.717C594.587 278.717 596.685 280.91 596.685 285.022V287.123H596.867C599.057 281.458 604.439 278.717 610.917 278.717C622.047 278.717 631.809 286.849 631.809 304.119C631.809 316.911 625.331 328.881 611.282 328.881C605.17 328.881 600.608 326.414 598.146 322.119H597.963V339.937C597.963 344.323 595.316 346.607 591.303 346.607C587.289 346.607 584.643 344.323 584.643 339.937V285.022ZM607.907 289.133C600.152 289.133 597.232 296.078 597.232 303.662C597.232 310.516 599.786 318.556 607.907 318.465C616.391 318.465 618.489 309.875 618.489 303.662C618.489 295.804 615.022 289.316 607.907 289.133Z" fill="white"/>
<path d="M641.85 288.674H639.569C635.828 288.674 634.277 287.212 634.277 284.288C634.277 281.364 635.828 279.902 639.569 279.902H641.85V271.77C641.85 267.384 644.496 265.1 648.509 265.1C652.523 265.1 655.169 267.384 655.169 271.77V279.902H659.184C663.106 279.902 665.206 281.09 665.206 284.288C665.206 287.486 663.106 288.674 659.184 288.674H655.169V315.354C655.169 317.365 656.263 318.462 658.636 318.462H660.552C663.471 318.462 665.206 320.107 665.206 322.939C665.206 326.777 661.922 328.879 655.535 328.879C645.865 328.879 641.851 324.858 641.851 316.999L641.85 288.674Z" fill="white"/>
<path d="M681.435 306.311C681.435 313.348 685.996 318.464 693.751 318.464C703.786 318.464 703.786 311.885 709.168 311.885C712.082 311.896 714.482 314.18 714.642 317.094C714.642 325.135 701.779 328.881 693.751 328.881C675.139 328.881 668.115 316.271 668.115 304.667C668.115 289.133 677.512 278.717 693.294 278.717C708.62 278.717 717.379 289.59 717.379 300.555C717.379 305.124 716.011 306.311 711.541 306.311H681.435ZM704.79 298.637C704.06 292.514 699.498 288.037 693.568 288.037C686.908 288.037 682.894 292.149 681.435 298.637H704.79Z" fill="white"/>
<path d="M724.678 267.377C724.678 262.991 727.323 260.707 731.338 260.707C735.352 260.707 737.997 262.991 737.997 267.377V322.201C737.997 326.587 735.351 328.872 731.338 328.872C727.324 328.872 724.678 326.587 724.678 322.201V267.377Z" fill="white"/>
</g>
</g>
<defs>
<linearGradient id="paint0_linear_68_1075" x1="221.993" y1="299.547" x2="370.553" y2="299.547" gradientUnits="userSpaceOnUse">
<stop stop-color="#84ABE5"/>
<stop offset="1" stop-color="#39C9E1"/>
</linearGradient>
<clipPath id="clip0_68_1075">
<rect width="516" height="165.12" fill="white" transform="translate(222 217)"/>
</clipPath>
</defs>
</svg>
